<svg id="Layer_1" data-name="Layer 1" xmlns="http://www.w3.org/2000/svg" viewBox="0 0 32.66 32.6"><defs><style>.cls-1{fill:none;stroke:#f9f9fa;stroke-miterlimit:10;stroke-width:0.6px;}</style></defs><path class="cls-1" d="M290,408.28" transform="translate(-281.67 -404.2)"/><path class="cls-1" d="M290.26,412.89v-3.78h14.06v21.12s.45,1.31.82,0V409.11h1.49v26.6h-1.26l-.05-3.22s-.35-1.26-1.1-.08l.1,3.3H290.26v-3h-1v3.76h17.86s.34.12.34-1.05V408.9a.69.69,0,0,0-.41-.63.34.34,0,0,0-.19,0h-17.6v4.9S290,413.75,290.26,412.89Z" transform="translate(-281.67 -404.2)"/><polyline class="cls-1" points="30.05 0.61 30.05 28.54 25.82 28.54 25.82 27.68 29.11 27.68 29.11 1.08 14.91 1.08 14.91 4.02 13.97 4.02 13.97 0.3 30.05 0.3 30.05 0.61"/><path class="cls-1" d="M311.72,405.19h1.14V432h-1.14v.77h1.88s.45.36.35-1V405.1a3.25,3.25,0,0,1,.07-.45c0-.07-.14-.15-1-.15h-2.19v1.17h.85Z" transform="translate(-281.67 -404.2)"/><path class="cls-1" d="M290.37,421.1v-6.51s-.49-.74-1.23,0v6.51Z" transform="translate(-281.67 -404.2)"/><path class="cls-1" d="M293,432.24" transform="translate(-281.67 -404.2)"/><path class="cls-1" d="M289.74,426.39c2.15,0,4.32.1,6.47.09l-2.87-4.12c-1,1.43-2.5,4.14-2.45,4" transform="translate(-281.67 -404.2)"/><polyline class="cls-1" points="11.01 27.85 14.51 22.9 8.62 23.03"/><path class="cls-1" d="M292.79,432" transform="translate(-281.67 -404.2)"/><polyline class="cls-1" points="8.39 22.2 5.16 17.14 4.31 16.9 0.36 22.64 4.31 28.54 11.58 28.54"/><path class="cls-1" d="M289.74,426.58" transform="translate(-281.67 -404.2)"/><path class="cls-1" d="M289.53,426.7" transform="translate(-281.67 -404.2)"/><path class="cls-1" d="M289.29,426.84" transform="translate(-281.67 -404.2)"/><polyline class="cls-1" points="8.26 22.19 1.67 22.22 4.57 18.16 6.93 22.2"/><path class="cls-1" d="M290,426.82" transform="translate(-281.67 -404.2)"/><polyline class="cls-1" points="11.12 27.81 4.98 27.86 1.89 23 8.72 23.02"/><polyline class="cls-1" points="7.61 22.2 10.83 17.14 11.68 16.9 15.63 22.64 11.68 28.54 4.41 28.54"/><line class="cls-1" x1="4.31" y1="16.9" x2="11.78" y2="16.9"/></svg>