<svg id="Layer_1" data-name="Layer 1" xmlns="http://www.w3.org/2000/svg" viewBox="0 0 33 33"><defs><style>.cls-1{fill:none;stroke:#f9f9fa;stroke-miterlimit:10;}</style></defs><rect class="cls-1" x="2.81" y="2.62" width="27.47" height="27.47" rx="3.91"/><rect class="cls-1" x="0.5" y="0.5" width="32" height="32" rx="3.91"/><line class="cls-1" x1="2.81" y1="6.02" x2="27.7" y2="30.09"/><line class="cls-1" x1="2.81" y1="12.54" x2="20.94" y2="30.09"/><line class="cls-1" x1="2.81" y1="18.5" x2="14.43" y2="30.09"/><line class="cls-1" x1="2.81" y1="24.86" x2="8.71" y2="30.09"/><line class="cls-1" x1="3.7" y1="28.95" x2="5.57" y2="27.39"/><line class="cls-1" x1="2.81" y1="24.86" x2="6" y2="21.68"/><line class="cls-1" x1="8.96" y1="30.09" x2="11.88" y2="27.39"/><line class="cls-1" x1="8.71" y1="24.29" x2="11.72" y2="21.16"/><line class="cls-1" x1="2.81" y1="17.91" x2="5.55" y2="15.19"/><line class="cls-1" x1="14.96" y1="24.29" x2="18.19" y2="21.02"/><line class="cls-1" x1="21.67" y1="30.09" x2="24.61" y2="27.19"/><line class="cls-1" x1="4.8" y1="3" x2="30.28" y2="26.99"/><line class="cls-1" x1="11.61" y1="2.62" x2="30.26" y2="20.77"/><line class="cls-1" x1="17.98" y1="2.62" x2="30.28" y2="14.76"/><line class="cls-1" x1="23.83" y1="2.62" x2="30.28" y2="8.69"/><line class="cls-1" x1="14.5" y1="12.05" x2="18.11" y2="8.95"/><line class="cls-1" x1="20.98" y1="18.23" x2="24.29" y2="14.92"/><line class="cls-1" x1="27.4" y1="24.21" x2="30.28" y2="21.42"/><line class="cls-1" x1="27.32" y1="17.91" x2="30.28" y2="15.19"/><line class="cls-1" x1="21.23" y1="12.05" x2="24.31" y2="8.76"/><line class="cls-1" x1="14.81" y1="5.73" x2="17.98" y2="2.62"/><line class="cls-1" x1="21" y1="5.66" x2="24.13" y2="2.91"/><line class="cls-1" x1="27.32" y1="11.84" x2="30.28" y2="8.95"/><line class="cls-1" x1="27.05" y1="5.66" x2="29.42" y2="3.64"/><line class="cls-1" x1="20.94" y1="23.64" x2="23.71" y2="20.89"/><line class="cls-1" x1="13.42" y1="16.28" x2="16.14" y2="13.57"/><line class="cls-1" x1="5.68" y1="8.95" x2="8.38" y2="6.27"/><line class="cls-1" x1="14.09" y1="29.66" x2="17.49" y2="26.69"/><line class="cls-1" x1="6.7" y1="16.17" x2="9.85" y2="12.9"/></svg>