<svg id="Layer_1" data-name="Layer 1" xmlns="http://www.w3.org/2000/svg" viewBox="0 0 32.7 32.7"><defs><style>.cls-1{fill:none;}.cls-1,.cls-2{stroke:#f9f9fa;stroke-miterlimit:10;stroke-width:0.7px;}.cls-2{fill:#f9f9fa;}</style></defs><path class="cls-1" d="M305.81,430.36s7.67,1.69,8.19-13.1c0,0,.21-10.9-6.57-12.62a4.3,4.3,0,0,0-2.7.17c-2.11.88-6,3.75-6.05,12.84C298.68,417.65,298.59,429.54,305.81,430.36Z" transform="translate(-281.65 -404.15)"/><path class="cls-1" d="M313.38,422.64s.6-15.89-6.7-16.36a4.72,4.72,0,0,0-4.21,2.16c-1.54,2.37-3.59,7.31-1.37,15a7.75,7.75,0,0,0,2.06,3.49c1.46,1.4,3.75,2.49,6.16-.64a8.65,8.65,0,0,0,1.45-3c.71-2.66,1.71-8.36-1.27-12.68a3.93,3.93,0,0,0-3.2-1.75c-1.94,0-4.42,1.5-4.5,9,0,0-.18,7.07,3.92,7.52a2.65,2.65,0,0,0,2.39-1c1.17-1.56,3.32-5,.6-11" transform="translate(-281.65 -404.15)"/><polyline class="cls-1" points="3.17 32.14 19.15 32.35 25.84 26.27 10.09 26.89"/><path class="cls-1" d="M282,419s.64,12.26,9.74,12l-6.92,5.26" transform="translate(-281.65 -404.15)"/><path class="cls-1" d="M306.24,404.51H289.82s-7.91.82-7.82,14.49" transform="translate(-281.65 -404.15)"/><ellipse class="cls-1" cx="24.76" cy="13.37" rx="3.44" ry="5.57"/><ellipse class="cls-2" cx="24.76" cy="13.37" rx="1.88" ry="3.94"/></svg>