<svg id="Layer_1" data-name="Layer 1" xmlns="http://www.w3.org/2000/svg" viewBox="0 0 33 33"><defs><style>.cls-1{fill:none;stroke:#f9f9fa;stroke-miterlimit:10;}</style></defs><path class="cls-1" d="M282,436.5h32v-1a1,1,0,0,0-.82-.93l-10.2-2a3.39,3.39,0,0,1-3-3.44l-.14-13a3.53,3.53,0,0,1,2.33-3.33l.21-.07,3.5-1.08c.28-.09.57-.16.86-.24a1.12,1.12,0,0,0,.78-1.12,25.39,25.39,0,0,0,0-2.9,3.06,3.06,0,0,0-1.59-2.56,2.59,2.59,0,0,0-1-.32c-1.4-.09-12.14,0-13.42,0a.78.78,0,0,0-.26,0h0a2.89,2.89,0,0,0-2.13,2.73v3.16s0,1,1.42,1.24a27.1,27.1,0,0,1,3.74,1.11,4.11,4.11,0,0,1,1.5.92,2.52,2.52,0,0,1,.83,2.17l.05,12.63c0,.15,0,.3,0,.45a2.87,2.87,0,0,1-2.12,3l-11.71,2.37a.94.94,0,0,0-.78.9Z" transform="translate(-281.5 -404)"/></svg>