<svg id="Layer_1" data-name="Layer 1" xmlns="http://www.w3.org/2000/svg" viewBox="0 0 33 33"><defs><style>.cls-1{fill:none;stroke:#f9f9fa;stroke-miterlimit:10;}</style></defs><path class="cls-1" d="M290,435.94l20.37-14.68s4.94-4,1.54-12.91c0,0-2.73-4.8-6.87-3L284.66,420" transform="translate(-280.65 -404.45)"/><path class="cls-1" d="M293.3,428.06c0,3.75-1.58,6.95-3.82,8.26a4.43,4.43,0,0,1-2.26.63c-3.35,0-6.07-4-6.07-8.89s2.72-8.89,6.07-8.89S293.3,423.15,293.3,428.06Z" transform="translate(-280.65 -404.45)"/><path class="cls-1" d="M291,428.06c0,2.31-1,4.29-2.36,5.1a2.75,2.75,0,0,1-1.39.39c-2.07,0-3.75-2.46-3.75-5.49s1.68-5.48,3.75-5.48S291,425,291,428.06Z" transform="translate(-280.65 -404.45)"/><line class="cls-1" x1="15.2" y1="11.05" x2="22.75" y2="5.38"/></svg>