<svg id="Layer_1" data-name="Layer 1" xmlns="http://www.w3.org/2000/svg" viewBox="0 0 33 16"><defs><style>.cls-1{fill:none;stroke:#f9f9fa;stroke-miterlimit:10;}</style></defs><path class="cls-1" d="M284.46,425.81l3-6.16,3.92,7.15s1.11,2.49,2.52,0,4.09-7.15,4.09-7.15l4,7s1.31,3,2.67.16c.26-.54.52-1.1.8-1.61l3-5.54,3,6.11h0a1.67,1.67,0,0,0,1.18,1.08c.58.06,1.29-.22,1.34-1.94a6.33,6.33,0,0,0-.49-2.61L310,414.35s-1-3-2.68,0-4,7.07-4,7.07L299.09,414s-1.07-2.33-2.44.32-3.92,7.39-3.92,7.39l-4.56-8s-1.23-2-2.38,1.21l-3.33,7.24a5.81,5.81,0,0,0-.28,3.7c.22.83.62,1.47,1.32,1.15A2.32,2.32,0,0,0,284.46,425.81Z" transform="translate(-281.5 -412.51)"/></svg>