<svg id="Layer_1" data-name="Layer 1" xmlns="http://www.w3.org/2000/svg" viewBox="0 0 32.6 32.6"><defs><style>.cls-1{fill:#f9f9fa;}.cls-1,.cls-2{stroke:#f9f9fa;stroke-miterlimit:10;stroke-width:0.6px;}.cls-2{fill:none;}</style></defs><path class="cls-1" d="M312.12,409.27s-2.79,10.62,0,19.86C312.12,429.13,314.59,418.55,312.12,409.27Z" transform="translate(-282.35 -404.79)"/><ellipse class="cls-2" cx="29.7" cy="14.36" rx="2.6" ry="13.64"/><path class="cls-2" d="M309,408.11a59.25,59.25,0,0,0,0,22.13h-1.22a51.44,51.44,0,0,1,0-22.13Z" transform="translate(-282.35 -404.79)"/><path class="cls-2" d="M306.43,408.11s-3.54,9.05,0,22.13h-1.15s-3.59-12.06.08-22.13Z" transform="translate(-282.35 -404.79)"/><path class="cls-2" d="M304,408.11s-3.27,11.92,0,22.13H303a38.43,38.43,0,0,1,0-22.13Z" transform="translate(-282.35 -404.79)"/><path class="cls-2" d="M301.13,408.11a52.39,52.39,0,0,0,0,22.13H300a46,46,0,0,1,0-22.13Z" transform="translate(-282.35 -404.79)"/><path class="cls-2" d="M300.73,406.81h-1.5a.83.83,0,0,0-.71.6c-.2.58-1.44,3.39-1.66,10.26a41,41,0,0,0,1.28,12.57s.27,1.45,1.21,1.36h1.38s-1.08,2.72-2.17,1.48-1.8-3-2.48-7-.91-12.8,1.15-18.58c0,0,1.33-3.9,2.83-1.8Z" transform="translate(-282.35 -404.79)"/><path class="cls-2" d="M306.37,431.54h1.29s1.8,5.61-3.22,5.55v-1.24S308,436.53,306.37,431.54Z" transform="translate(-282.35 -404.79)"/><path class="cls-1" d="M294.49,416.1l.2-2.47s-5.13,0-8.22,1.24A20.1,20.1,0,0,0,294.49,416.1Z" transform="translate(-282.35 -404.79)"/><path class="cls-2" d="M294.84,412.39l.21-1.14a30.58,30.58,0,0,0-8.76,1s-5.24,1.67-3.09,3.53c0,0,1.68,2.62,11.17,2.75l0-1.21s-7,0-9.49-1.82c0,0-1.18-.59-.06-1.36C284.85,414.16,288.22,412.33,294.84,412.39Z" transform="translate(-282.35 -404.79)"/><path class="cls-2" d="M294.4,421.07v-1.28a24.91,24.91,0,0,1-8.73-1.24v1S288.53,421.05,294.4,421.07Z" transform="translate(-282.35 -404.79)"/><path class="cls-2" d="M294.58,423.47l-.18-1.21a22,22,0,0,1-8.73-1.45l-.13,1.2A21.61,21.61,0,0,0,294.58,423.47Z" transform="translate(-282.35 -404.79)"/><path class="cls-2" d="M294.69,424.83s-6.27,0-9.15-1.55v1.18a22.31,22.31,0,0,0,9.27,1.45Z" transform="translate(-282.35 -404.79)"/><path class="cls-2" d="M295.05,427.18a22.91,22.91,0,0,1-9.38-1.39l-.13,1s3.44,1.88,9.71,1.54Z" transform="translate(-282.35 -404.79)"/><path class="cls-2" d="M296,430.83l-.36-1.15s-6.12.19-9.93-1.45l-.13,1S288.83,431.41,296,430.83Z" transform="translate(-282.35 -404.79)"/><path class="cls-2" d="M297.05,433.18l-.71-1.12s-7.34.65-11.34-1.67c0,0-.59.07-.62-1.26l0-1.33s-1.42.92-1.67,1.6S283.9,433.86,297.05,433.18Z" transform="translate(-282.35 -404.79)"/></svg>