<svg id="Layer_1" data-name="Layer 1" xmlns="http://www.w3.org/2000/svg" viewBox="0 0 33 32.93"><defs><style>.cls-1{fill:none;stroke:#f9f9fa;stroke-miterlimit:10;}</style></defs><ellipse class="cls-1" cx="3.03" cy="29.33" rx="2.53" ry="3.1"/><path class="cls-1" d="M282.86,431l21.61-25.54a2.29,2.29,0,0,1,2.44-.86,2.85,2.85,0,0,1,1.47,2.39" transform="translate(-281.5 -404.03)"/><line class="cls-1" x1="4.71" y1="31.66" x2="8.1" y2="27.71"/><line class="cls-1" x1="7.63" y1="19.59" x2="7.63" y2="23.2"/><line class="cls-1" x1="10.54" y1="16.23" x2="10.54" y2="22.99"/><line class="cls-1" x1="14.09" y1="12.01" x2="14.09" y2="18.57"/><line class="cls-1" x1="17.47" y1="7.96" x2="17.47" y2="14.49"/><line class="cls-1" x1="20.53" y1="4.38" x2="20.53" y2="10.75"/><line class="cls-1" x1="23.86" y1="0.75" x2="23.86" y2="6.58"/><ellipse class="cls-1" cx="10.77" cy="27.3" rx="2.68" ry="3.27"/><path class="cls-1" d="M290.48,428.9l19.1-23.33a2.42,2.42,0,0,1,2.85-.85,2.55,2.55,0,0,1,1.43,1.74,4,4,0,0,1-.7,3.5l-18.79,23.41" transform="translate(-281.5 -404.03)"/><line class="cls-1" x1="12.95" y1="20.02" x2="12.95" y2="25.39"/><line class="cls-1" x1="16.2" y1="16.04" x2="16.2" y2="25.25"/><line class="cls-1" x1="19.41" y1="12.13" x2="19.41" y2="21.19"/><line class="cls-1" x1="22.82" y1="7.96" x2="22.96" y2="16.76"/><line class="cls-1" x1="26.12" y1="3.92" x2="26.12" y2="12.82"/><line class="cls-1" x1="29.5" y1="0.43" x2="29.59" y2="8.5"/></svg>