<svg id="Layer_1" data-name="Layer 1" xmlns="http://www.w3.org/2000/svg" viewBox="0 0 32.9 32.9"><defs><style>.cls-1{fill:none;stroke:#f9f9fa;stroke-miterlimit:10;stroke-width:0.9px;}</style></defs><ellipse class="cls-1" cx="27.19" cy="18.44" rx="3.36" ry="4.69"/><path class="cls-1" d="M306.31,425.72l-17.69-13.37a5,5,0,0,1-1.72-4.07,4.13,4.13,0,0,1,1.2-3,2.63,2.63,0,0,1,3.53-.21l18.2,13" transform="translate(-281.55 -404.05)"/><line class="cls-1" x1="5.72" y1="2.43" x2="24.28" y2="16.39"/><ellipse class="cls-1" cx="22.29" cy="27.39" rx="3.36" ry="4.69"/><path class="cls-1" d="M301.7,435.06l-18-13.75a5,5,0,0,1-1.73-4.07,4.18,4.18,0,0,1,1.21-3,2.64,2.64,0,0,1,3.53-.2l17.81,12.82" transform="translate(-281.55 -404.05)"/><line class="cls-1" x1="0.83" y1="11.38" x2="19.39" y2="25.35"/><ellipse class="cls-1" cx="29.52" cy="28.36" rx="2.93" ry="4.09"/><line class="cls-1" x1="25.39" y1="29.19" x2="27.42" y2="31.2"/><line class="cls-1" x1="28.4" y1="22.81" x2="30.54" y2="24.53"/></svg>