<svg id="Layer_1" data-name="Layer 1" xmlns="http://www.w3.org/2000/svg" viewBox="0 0 32.7 32.7"><defs><style>.cls-1{fill:none;stroke:#f9f9fa;stroke-miterlimit:10;stroke-width:0.7px;}</style></defs><path class="cls-1" d="M309.14,421" transform="translate(-281.46 -404.15)"/><path class="cls-1" d="M287.83,408.8" transform="translate(-281.46 -404.15)"/><ellipse class="cls-1" cx="3.59" cy="29.1" rx="3.24" ry="3.25"/><path class="cls-1" d="M282.46,431.29l24.15-25.13a5.29,5.29,0,0,1,3-1.61,3.28,3.28,0,0,1,3.64,1.84,3.63,3.63,0,0,1-.07,4,5.17,5.17,0,0,1-.8.95l-24.95,24.15s.67-.31.94-2.57l22.84-22.58a3,3,0,0,0,.9-2.55,1.79,1.79,0,0,0-1.54-1.64,3,3,0,0,0-2.6.88l-22.86,22.9A4.73,4.73,0,0,0,282.46,431.29Z" transform="translate(-281.46 -404.15)"/><path class="cls-1" d="M291.62,432.43s.87.07.8-1.27c0,0,.13-4.7-2.16-6.53,0,0-.86-.92-1.59-.74-.44.1-.39.12-.39.12s-1.29.48.39,1.33,2,3.32,2.16,5.29S291.62,432.43,291.62,432.43Z" transform="translate(-281.46 -404.15)"/><path class="cls-1" d="M296.74,427s-.28-5.28-2.25-6.45l-1.37-.72s-1.36-.28-1,1a4.49,4.49,0,0,1,2.25,2,10.7,10.7,0,0,1,.71,3.66S296.33,429.49,296.74,427Z" transform="translate(-281.46 -404.15)"/><path class="cls-1" d="M300.89,422.81s-.08-6.58-3.66-7.18c0,0-1.84.11-.49,1.39,0,0,2-.08,2.57,5.23C299.31,422.25,300.49,425.35,300.89,422.81Z" transform="translate(-281.46 -404.15)"/><path class="cls-1" d="M305,418.7s.09-4.63-2.16-6.57c0,0-1.29-.88-1.44-.73s-1.07-.23-1.05,1.07c0,0,2.94.31,3,5.52v.11l.25,1.21S305.1,420.35,305,418.7Z" transform="translate(-281.46 -404.15)"/><path class="cls-1" d="M309.19,414.51s.09-6.31-3.71-7.23c0,0-1.6-.09-.65,1.4,0,0,2.47-.06,2.87,5.54,0,0,0,1.15.26,1.23S309.39,415.8,309.19,414.51Z" transform="translate(-281.46 -404.15)"/></svg>