<svg id="Layer_1" data-name="Layer 1" xmlns="http://www.w3.org/2000/svg" viewBox="0 0 33 33"><defs><style>.cls-1{fill:none;stroke:#f9f9fa;stroke-miterlimit:10;}</style></defs><path class="cls-1" d="M296.41,412l6.25-1.34v-5.8l-20-.32s-.6.11-.6,1.07v4.72s-.11.59,1.2.76,5.13.48,5.13.48.67.05.67.91V428a1.6,1.6,0,0,1-1.49,1.72c-1.58.1-5,.48-5,.48s-.46-.32-.53,1.45,0,4.61,0,4.61a6.24,6.24,0,0,0,2.14.22c1.05-.11,29.23,0,29.23,0a1.36,1.36,0,0,0,.38-.93c0-.45,0-1.55,0-2.17a1.07,1.07,0,0,0-.88-1.09l-.17,0S300,429.66,298,430s-2.07-3-2.07-3.6.08-14.11.08-14.11S295.93,412.06,296.41,412Z" transform="translate(-281.5 -404)"/><line class="cls-1" x1="21.04" y1="26.43" x2="21.04" y2="32.46"/><line class="cls-1" x1="14.41" y1="16.5" x2="18.54" y2="18.69"/><path class="cls-1" d="M301.46,423.23l1.42,1" transform="translate(-281.5 -404)"/><path class="cls-1" d="M303.89,424.51l2,1.34" transform="translate(-281.5 -404)"/><path class="cls-1" d="M296.22,412l15.5,13.57H314v-5l-11.34-15.8" transform="translate(-281.5 -404)"/><path class="cls-1" d="M302.66,410.62l11.34,15" transform="translate(-281.5 -404)"/><path class="cls-1" d="M311.65,425.57c.09,6.49,0,6.51,0,6.51" transform="translate(-281.5 -404)"/></svg>