<svg id="Layer_1" data-name="Layer 1" xmlns="http://www.w3.org/2000/svg" viewBox="0 0 32.7 32.7"><defs><style>.cls-1,.cls-2,.cls-3,.cls-4{fill:none;stroke:#f9f9fa;stroke-miterlimit:10;}.cls-1{stroke-width:0.7px;}.cls-2{stroke-width:0.3px;}.cls-3{stroke-width:0.4px;}.cls-4{stroke-width:0.5px;}</style></defs><path class="cls-1" d="M282.88,421.22l19-16.64s.19-.18,1.16,0,10.75,4.36,10.75,4.36a2.9,2.9,0,0,1,.18.78c0,.49,0,5.69,0,5.69a2.37,2.37,0,0,1-.46,1.4c-.46.48-21.18,19.42-21.18,19.42a1.27,1.27,0,0,1-1.61,0c-1-.6-8.36-5.38-8.36-5.38a2.63,2.63,0,0,1-.37-1.7c0-.94.07-4.87.09-6.57a1.39,1.39,0,0,1,.48-1.1Z" transform="translate(-281.65 -404.15)"/><polyline class="cls-1" points="0.85 17.62 10.58 23.56 32.35 4.97"/><path class="cls-2" d="M282.72,422.91v7l8.79,5.51v-7a.49.49,0,0,0-.2-.42Z" transform="translate(-281.65 -404.15)"/><line class="cls-3" x1="5.77" y1="21.47" x2="1.07" y2="25.68"/><line class="cls-4" x1="10.58" y1="23.56" x2="10.37" y2="32.27"/></svg>